<?xml version="1.0" encoding="UTF-8" standalone="no"?>
<svg width="130px" height="104px" viewBox="0 0 130 104" version="1.1" xmlns="http://www.w3.org/2000/svg" xmlns:xlink="http://www.w3.org/1999/xlink" xmlns:sketch="http://www.bohemiancoding.com/sketch/ns">
    <!-- Generator: Sketch 3.4.2 (15855) - http://www.bohemiancoding.com/sketch -->
    <title>coding copy</title>
    <desc>Created with Sketch.</desc>
    <defs></defs>
    <g id="Page-1" stroke="none" stroke-width="1" fill="none" fill-rule="evenodd" sketch:type="MSPage">
        <g id="Desktop-HD-Copy-12" sketch:type="MSArtboardGroup" transform="translate(-961.000000, -718.000000)">
            <g id="Rectangle-240-Copy-+-coding-copy" sketch:type="MSLayerGroup" transform="translate(891.000000, 692.000000)">
                <g id="coding-copy" transform="translate(71.000000, 26.000000)" sketch:type="MSShapeGroup">
                    <rect id="Rectangle-path" fill="#4A90E2" x="89.444641" y="42.2892018" width="11.4152645" height="2.49254912"></rect>
                    <rect id="Rectangle-path" fill="#4A90E2" x="89.444641" y="47.4721428" width="22.8305291" height="2.49254912"></rect>
                    <rect id="Rectangle-path" fill="#4A90E2" x="89.444641" y="52.6564296" width="22.8305291" height="2.49254912"></rect>
                    <rect id="Rectangle-path" fill="#4A90E2" x="89.444641" y="57.8393706" width="22.8305291" height="2.49524086"></rect>
                    <rect id="Rectangle-path" fill="#4A90E2" x="89.444641" y="26.267979" width="22.8305291" height="13.2568082"></rect>
                    <rect id="Rectangle-path" fill="#4A90E2" x="89.444641" y="15.3543284" width="22.8305291" height="6.62840411"></rect>
                    <path d="M79.3589191,5.65330571 L5.41889323,5.65330571 L5.41889323,71.6345263 L79.3575761,71.6345263 L80.237223,71.6345263 L80.237223,5.65330571 L79.3589191,5.65330571 L79.3589191,5.65330571 Z M52.8083567,38.7630254 L52.8083567,40.7293398 L20.9664835,40.7293398 L20.9664835,38.7630254 L52.8083567,38.7630254 L52.8083567,38.7630254 Z M41.2937122,37.4884876 L20.9664835,37.4884876 L20.9664835,35.5194815 L41.2937122,35.5194815 L41.2937122,37.4884876 L41.2937122,37.4884876 Z M13.9897424,12.2507548 L19.5885939,12.2507548 L19.5885939,14.2184151 L13.9897424,14.2184151 L13.9897424,12.2507548 L13.9897424,12.2507548 Z M13.9897424,15.5656298 L27.9445676,15.5656298 L27.9445676,17.5332901 L13.9897424,17.5332901 L13.9897424,15.5656298 L13.9897424,15.5656298 Z M13.9897424,18.879159 L32.5966236,18.879159 L32.5966236,20.8468192 L13.9897424,20.8468192 L13.9897424,18.879159 L13.9897424,18.879159 Z M13.9897424,22.1926881 L27.9445676,22.1926881 L27.9445676,24.1603483 L13.9897424,24.1603483 L13.9897424,22.1926881 L13.9897424,22.1926881 Z M13.9897424,25.5075631 L27.9445676,25.5075631 L27.9445676,27.4752233 L13.9897424,27.4752233 L13.9897424,25.5075631 L13.9897424,25.5075631 Z M13.9897424,28.8210922 L19.5885939,28.8210922 L19.5885939,30.7887525 L13.9897424,30.7887525 L13.9897424,28.8210922 L13.9897424,28.8210922 Z M13.9897424,32.137313 L23.3502594,32.137313 L23.3502594,34.1036274 L13.9897424,34.1036274 L13.9897424,32.137313 L13.9897424,32.137313 Z M13.9897424,35.5194815 L19.5885939,35.5194815 L19.5885939,37.4884876 L13.9897424,37.4884876 L13.9897424,35.5194815 L13.9897424,35.5194815 Z M13.9897424,38.7630254 L19.5885939,38.7630254 L19.5885939,40.7293398 L13.9897424,40.7293398 L13.9897424,38.7630254 L13.9897424,38.7630254 Z M13.9897424,42.0779004 L19.5885939,42.0779004 L19.5885939,44.0442148 L13.9897424,44.0442148 L13.9897424,42.0779004 L13.9897424,42.0779004 Z M13.9897424,48.7063045 L19.5885939,48.7063045 L19.5885939,50.6739648 L13.9897424,50.6739648 L13.9897424,48.7063045 L13.9897424,48.7063045 Z M12.6467701,63.930773 L10.9492532,63.930773 L10.9492532,61.9617669 L12.6467701,61.9617669 L12.6467701,63.930773 L12.6467701,63.930773 Z M12.6467701,60.615898 L10.9492532,60.615898 L10.9492532,58.6482377 L12.6467701,58.6482377 L12.6467701,60.615898 L12.6467701,60.615898 Z M12.6467701,57.3023689 L10.9492532,57.3023689 L10.9492532,55.3347086 L12.6467701,55.3347086 L12.6467701,57.3023689 L12.6467701,57.3023689 Z M12.6467701,53.9888398 L10.9492532,53.9888398 L10.9492532,52.0198336 L12.6467701,52.0198336 L12.6467701,53.9888398 L12.6467701,53.9888398 Z M12.6467701,50.6739648 L10.9492532,50.6739648 L10.9492532,48.7063045 L12.6467701,48.7063045 L12.6467701,50.6739648 L12.6467701,50.6739648 Z M12.6467701,47.3590898 L10.9492532,47.3590898 L10.9492532,45.3900837 L12.6467701,45.3900837 L12.6467701,47.3590898 L12.6467701,47.3590898 Z M12.6467701,44.0442148 L10.9492532,44.0442148 L10.9492532,42.0779004 L12.6467701,42.0779004 L12.6467701,44.0442148 L12.6467701,44.0442148 Z M12.6467701,40.7293398 L10.9492532,40.7293398 L10.9492532,38.7630254 L12.6467701,38.7630254 L12.6467701,40.7293398 L12.6467701,40.7293398 Z M12.6467701,37.4171566 L10.9492532,37.4171566 L10.9492532,35.4481504 L12.6467701,35.4481504 L12.6467701,37.4171566 L12.6467701,37.4171566 Z M12.6467701,34.1036274 L10.9492532,34.1036274 L10.9492532,32.137313 L12.6467701,32.137313 L12.6467701,34.1036274 L12.6467701,34.1036274 Z M12.6467701,30.7887525 L10.9492532,30.7887525 L10.9492532,28.8210922 L12.6467701,28.8210922 L12.6467701,30.7887525 L12.6467701,30.7887525 Z M12.6467701,27.4752233 L10.9492532,27.4752233 L10.9492532,25.5075631 L12.6467701,25.5075631 L12.6467701,27.4752233 L12.6467701,27.4752233 Z M12.6467701,24.1603483 L10.9492532,24.1603483 L10.9492532,22.1926881 L12.6467701,22.1926881 L12.6467701,24.1603483 L12.6467701,24.1603483 Z M12.6467701,20.8468192 L10.9492532,20.8468192 L10.9492532,18.879159 L12.6467701,18.879159 L12.6467701,20.8468192 L12.6467701,20.8468192 Z M12.6467701,17.5332901 L10.9492532,17.5332901 L10.9492532,15.5656298 L12.6467701,15.5656298 L12.6467701,17.5332901 L12.6467701,17.5332901 Z M12.6467701,14.2184151 L10.9492532,14.2184151 L10.9492532,12.2507548 L12.6467701,12.2507548 L12.6467701,14.2184151 L12.6467701,14.2184151 Z M23.3502594,63.930773 L13.9897424,63.930773 L13.9897424,61.9617669 L23.3502594,61.9617669 L23.3502594,63.930773 L23.3502594,63.930773 Z M25.4385813,60.615898 L13.9897424,60.615898 L13.9897424,58.6482377 L25.4385813,58.6482377 L25.4385813,60.615898 L25.4385813,60.615898 Z M36.8887631,57.3023689 L13.9897424,57.3023689 L13.9897424,55.3347086 L36.8887631,55.3347086 L36.8887631,57.3023689 L36.8887631,57.3023689 Z M41.2937122,53.9888398 L13.9897424,53.9888398 L13.9897424,52.0198336 L41.2937122,52.0198336 L41.2937122,53.9888398 L41.2937122,53.9888398 Z M58.5952244,50.6739648 L20.9664835,50.6739648 L20.9664835,48.7063045 L58.5952244,48.7063045 L58.5952244,50.6739648 L58.5952244,50.6739648 Z M58.5952244,47.3590898 L13.9897424,47.3590898 L13.9897424,45.3900837 L58.5952244,45.3900837 L58.5952244,47.3590898 L58.5952244,47.3590898 Z M65.5236185,44.0442148 L20.9664835,44.0442148 L20.9664835,42.0779004 L65.5236185,42.0779004 L65.5236185,44.0442148 L65.5236185,44.0442148 Z M72.4654423,44.0442148 L66.8665907,44.0442148 L66.8665907,42.0779004 L72.4654423,42.0779004 L72.4654423,44.0442148 L72.4654423,44.0442148 Z" id="Shape" fill="#4A90E2"></path>
                    <path d="M123.815331,0.517470162 L64.8843636,0.517470162 L62.87662,0.517470162 L3.94565261,0.517470162 C1.84658691,0.517470162 0.0376032244,2.11770823 0.0376032244,4.22130125 L0.0376032244,77.0247311 L0.0376032244,77.2777544 L0.0376032244,84.0232491 L0.0376032244,84.4445061 C0.0376032244,86.5480991 1.84658691,88.3165708 3.94565261,88.3165708 L51.145757,88.3165708 C51.0906952,89.5224693 50.7146629,94.7175231 48.2516517,97.2302602 C46.3110567,99.2154168 43.6143684,101.07137 44.6672587,102.025591 C44.9224234,102.613736 46.1324414,102.951549 48.8841917,102.951549 L63.9362252,102.951549 L64.8857066,102.951549 L79.9363972,102.951549 C83.0708945,102.951549 84.1667599,102.436081 84.1775037,101.670282 L84.0700659,101.670282 L84.0700659,101.415912 L83.9599422,101.415912 C83.820273,100.379593 81.7279222,98.8506863 80.1459008,97.2369896 C77.6828896,94.7242524 77.3082004,89.5318904 77.2531385,88.3259919 L123.81936,88.3259919 C125.919769,88.3259919 127.619972,86.5575202 127.619972,84.4512354 L127.619972,84.0299785 L127.619972,77.2844838 L127.619972,77.0314604 L127.619972,4.22264712 C127.618629,2.11636236 125.91574,0.517470162 123.815331,0.517470162 L123.815331,0.517470162 Z M63.8274444,84.6288901 C62.4562697,84.6288901 61.3469746,83.5198942 61.3469746,82.1444162 C61.3469746,80.77163 62.4562697,79.6599423 63.8274444,79.6599423 C65.1972762,79.6599423 66.3079143,80.77163 66.3079143,82.1444162 C66.3092572,83.5185483 65.1972762,84.6288901 63.8274444,84.6288901 L63.8274444,84.6288901 Z M122.238682,71.6345263 L80.237223,71.6345263 L79.3575761,71.6345263 L5.41889323,71.6345263 L5.41889323,5.65330571 L79.3589191,5.65330571 L80.237223,5.65330571 L122.238682,5.65330571 L122.238682,71.6345263 L122.238682,71.6345263 Z" id="Shape" stroke="#4A90E2" fill="#FFFFFF"></path>
                    <circle id="Oval-7" fill="#FFFFFF" cx="63.7999878" cy="82.2000122" r="2"></circle>
                </g>
            </g>
        </g>
    </g>
</svg>