<?xml version="1.0" encoding="UTF-8" standalone="no"?>
<svg width="147px" height="42px" viewBox="0 0 147 42" version="1.1" xmlns="http://www.w3.org/2000/svg" xmlns:xlink="http://www.w3.org/1999/xlink" xmlns:sketch="http://www.bohemiancoding.com/sketch/ns">
    <!-- Generator: Sketch 3.4 (15575) - http://www.bohemiancoding.com/sketch -->
    <title>noble-brewer-logo</title>
    <desc>Created with Sketch.</desc>
    <defs></defs>
    <g id="Page-1" stroke="none" stroke-width="1" fill="none" fill-rule="evenodd" sketch:type="MSPage">
        <g id="noble-brewer-logo" sketch:type="MSLayerGroup">
            <path d="M84,32.9 C83.3,34.5 82.7,35.8 82.2,37.1 C81.8,38.1 81.3,39.2 80.9,40.2 C80.7,40.8 80.3,41.3 79.5,41.2 L79.3,41.2 C77.4,41.2 77.4,41.3 76.5,39.5 C74.7,35.8 72.9,32.2 71.1,28.5 C70.9,28 70.6,27.5 70.3,27 C69.9,26.5 69.5,26.1 68.7,26.1 C68.3,26.1 67.7,26 67.7,25.8 C67.6,25.3 67.6,24.7 67.7,24.1 C67.7,24 68.1,23.8 68.3,23.8 L76.4,23.8 C76.9,23.8 77.1,24 77.1,24.5 C77.1,24.9 77.2,25.4 77,25.8 C76.9,26 76.4,26 76,26.2 C75.2,26.5 75,26.8 75.4,27.6 C76.6,30.1 77.8,32.5 79.2,35.2 C79.5,34.8 79.7,34.5 79.9,34.1 C80.5,32.9 81.1,31.6 81.6,30.3 C82.4,28.6 81.8,26.9 80,26.1 C79.6,25.9 79.3,25.9 79.3,25.4 C79.3,24.9 79.4,24.4 79.5,23.9 C79.5,23.8 79.8,23.7 80,23.7 L87.9,23.7 C88.4,23.7 88.7,23.9 88.7,24.5 C88.8,25.7 88.7,25.8 87.5,26 C86.5,26.2 86.2,26.6 86.4,27.6 L86.4,27.8 C87.5,30.2 88.6,32.6 89.8,35.2 C91.1,32.5 92.3,30.1 93.5,27.6 C94,26.6 93.5,26.1 92.4,26 L92,26 C90.4,26.1 90.7,25.7 90.7,24.4 C90.7,23.8 91,23.7 91.5,23.7 L98.9,23.7 C99.4,23.7 99.8,23.9 99.7,24.4 C99.6,24.9 100.1,25.8 99.1,25.9 C97.8,26 97.3,26.8 96.8,27.8 C94.9,31.8 93.1,35.7 91.2,39.7 C91,40.2 90.6,40.8 90.2,41 C89.4,41.2 88.6,41.1 87.8,41 C87.5,41 87.3,40.5 87.2,40.2 C86.3,38.4 85.5,36.6 84.7,34.7 C84.7,34.3 84.4,33.7 84,32.9 L84,32.9 Z" id="Shape" fill="#424242" sketch:type="MSShapeGroup"></path>
            <path d="M16.7,31.9 C17.2,32.1 17.6,32.3 18.1,32.4 C19.7,33.1 20.7,34.2 20.8,35.9 C20.9,37.8 20,39.1 18.4,40 C17.2,40.7 16,41 14.6,41 L1.2,41 C0.8,41 0.2,40.8 0.1,40.6 C-2.58126853e-15,40.1 -2.58126853e-15,39.5 0.2,39 C0.2,38.9 0.7,38.8 1,38.7 C2.8,38.5 3,38.3 3,36.5 L3,28 C3,26.3 2.7,26.1 1.1,25.9 C0.8,25.9 0.2,25.8 0.1,25.6 C-2.58126853e-15,25.1 -2.58126853e-15,24.5 0.1,23.9 C0.1,23.8 0.5,23.6 0.7,23.6 L2.8,23.6 L13.6,23.6 C14.5,23.6 15.5,23.8 16.4,24 C18.1,24.5 19.4,25.5 19.6,27.3 C19.9,29.2 19,30.6 17.3,31.4 C17.1,31.7 16.9,31.8 16.7,31.9 L16.7,31.9 Z M10.7,33.6 L10.7,33.6 L8.5,33.6 C7.7,33.5 7.5,33.9 7.6,34.6 L7.6,37.6 C7.6,38.2 7.8,38.5 8.5,38.5 L12.3,38.5 C12.9,38.5 13.5,38.3 14.1,38.2 C15.2,37.9 15.6,37.2 15.6,36.1 C15.6,34.8 14.8,33.9 13.3,33.7 C12.3,33.6 11.5,33.6 10.7,33.6 L10.7,33.6 Z M10.1,26.5 L8.2,26.5 C7.7,26.5 7.5,26.7 7.5,27.2 L7.5,30.4 C7.5,30.6 7.7,30.9 7.8,31 C9.7,31 11.6,31.2 13.4,30.6 C14.2,30.3 14.7,29.4 14.6,28.7 C14.5,27.8 14.1,27.1 13.2,27 C12.2,26.6 10.1,26.4 10.1,26.5 L10.1,26.5 Z" id="Shape" fill="#424242" sketch:type="MSShapeGroup"></path>
            <path d="M132.4,23.8 C134.4,23.8 136.3,23.7 138.3,23.8 C139.3,23.8 140.3,24 141.2,24.3 C143.9,25.2 145.1,27.5 144.3,30.3 C143.9,31.7 142.9,32.6 141.6,33.2 C140.6,33.7 140.6,33.8 141.1,34.7 C142,36.5 143.2,38.1 145.4,38.6 C146.2,38.8 146.7,40.1 146.3,40.9 C146.2,41.1 145.8,41.2 145.5,41.2 C141.5,41.2 138.5,39.6 136.6,36.1 C135.6,34.1 135.6,34.1 133.3,34.3 C132.6,34.3 132.4,34.6 132.4,35.2 L132.4,36.9 C132.4,38.4 132.7,38.7 134.1,38.9 C135.4,39.1 135.5,39.2 135.4,40.5 C135.4,41.1 135.1,41.2 134.6,41.2 L129.5,41.2 L125.9,41.2 C125.2,41.2 124.8,41.1 124.9,40.3 C124.9,39.1 124.9,39 125.8,38.9 C127.7,38.7 127.8,38.5 127.8,36.7 L127.8,28 C127.8,26.5 127.5,26.2 125.9,26 C125.6,26 125,25.9 124.9,25.7 C124.8,25.2 124.7,24.6 124.9,24 C124.9,23.8 125.5,23.7 125.8,23.7 C128,23.8 130.2,23.8 132.4,23.8 L132.4,23.8 L132.4,23.8 Z M135,31.4 C135,31.4 137,31.4 138,31.1 C139.2,30.7 139.5,30 139.5,28.8 C139.5,27.7 139.1,27.2 137.9,26.8 C137.4,26.6 136.8,26.5 136.3,26.5 C131.3,26.6 132.5,25.4 132.4,30.5 C132.4,31.1 132.6,31.5 133.2,31.4 C133.8,31.4 134.4,31.4 135,31.4 L135,31.4 Z" id="Shape" fill="#424242" sketch:type="MSShapeGroup"></path>
            <path d="M30.1,23.8 C32.1,23.8 34,23.7 36,23.8 C37,23.8 38,24 38.9,24.3 C41.6,25.2 42.8,27.5 42,30.3 C41.6,31.7 40.6,32.6 39.3,33.2 C38.3,33.7 38.3,33.8 38.8,34.7 C39.7,36.5 40.9,38.1 43.1,38.6 C43.9,38.8 44.4,40.1 44,40.9 C43.9,41.1 43.5,41.2 43.2,41.2 C39.2,41.2 36.2,39.6 34.3,36.1 C33.3,34.1 33.3,34.1 31,34.3 C30.3,34.3 30.1,34.6 30.1,35.2 L30.1,36.9 C30.1,38.4 30.4,38.7 31.8,38.9 C33.1,39.1 33.2,39.2 33.1,40.5 C33.1,41.1 32.8,41.2 32.3,41.2 L27.2,41.2 L23.6,41.2 C22.9,41.2 22.5,41.1 22.6,40.3 C22.6,39.1 22.6,39 23.5,38.9 C25.3,38.7 25.5,38.5 25.5,36.7 L25.5,28 C25.5,26.5 25.2,26.2 23.6,26 C23.2,26 22.7,25.9 22.6,25.7 C22.5,25.2 22.4,24.6 22.6,24 C22.6,23.8 23.2,23.7 23.5,23.7 C25.7,23.8 27.9,23.8 30.1,23.8 L30.1,23.8 L30.1,23.8 Z M32.8,31.4 C32.8,31.4 34.8,31.4 35.8,31.1 C37,30.7 37.3,30 37.3,28.8 C37.3,27.7 36.9,27.2 35.7,26.8 C35.2,26.6 34.6,26.5 34.1,26.5 C29.1,26.6 30.3,25.4 30.2,30.5 C30.2,31.1 30.4,31.5 31,31.4 C31.5,31.4 32.1,31.4 32.8,31.4 L32.8,31.4 Z" id="Shape" fill="#424242" sketch:type="MSShapeGroup"></path>
            <path d="M64.4,33.7 C65.2,33.9 66.2,33.8 66.6,34.3 C66.9,34.7 66.6,35.7 66.5,36.4 C66.4,37.6 66.5,38.8 66.4,40 C66.3,41.1 66.2,41.2 65.1,41.2 L58.7,41.2 L47.5,41.2 C47.2,41.2 46.5,41.1 46.5,40.9 C46.4,40.3 46.5,39.7 46.6,39.1 C46.6,39 47.1,38.9 47.4,38.9 C49.1,38.7 49.3,38.5 49.3,36.8 L49.3,28.3 C49.3,26.5 49.1,26.3 47.3,26.1 C47,26.1 46.4,25.9 46.4,25.7 C46.3,25.2 46.4,24.6 46.5,24 C46.5,23.9 46.9,23.8 47.1,23.8 L51.1,23.8 L64.3,23.8 C65.7,23.8 65.8,23.9 65.9,25.3 C66,26.6 66.2,27.9 66.3,29.2 C66.4,30.2 66.3,30.2 65.3,30.3 C64.6,30.4 63.9,30.4 63.7,29.4 C63.2,27.4 61.6,26.7 59.7,26.5 C58,26.4 56.3,26.5 54.6,26.5 C54.1,26.5 53.8,26.7 53.8,27.3 L53.8,30.1 C53.8,30.3 54,30.7 54.1,30.7 C55.1,30.7 56.1,30.7 57.1,30.5 C57.3,30.5 57.4,29.7 57.6,29.2 C57.7,28.9 57.8,28.2 57.9,28.2 C58.6,28.1 59.3,28.2 59.9,28.2 C60,28.2 60.1,28.5 60.1,28.7 L60.1,35.7 C60.1,35.9 59.8,36.2 59.6,36.3 C59.2,36.4 58.7,36.3 58.3,36.3 C57.8,36.3 57.7,36 57.7,35.6 L57.7,34.7 C57.7,34.1 57.3,33.8 56.7,33.7 C55.8,33.7 55,33.8 54.1,33.8 C54,34.5 53.9,35.3 53.9,36 C53.9,36.8 53.7,37.9 54.1,38.3 C54.5,38.7 55.6,38.5 56.4,38.5 C57.8,38.5 59.2,38.3 60.5,38.2 C62.2,38.1 63.2,37 63.7,35.4 C64.1,34.9 64.2,34.4 64.4,33.7 L64.4,33.7 Z" id="Shape" fill="#424242" sketch:type="MSShapeGroup"></path>
            <path d="M119.4,33.7 C119.8,33.8 120.2,33.9 120.5,33.9 C121.9,34.1 121.8,34.1 121.7,35.4 C121.6,36.8 121.5,38.3 121.4,39.7 C121.3,41.1 121.3,41.2 119.8,41.2 L102.8,41.2 C102.4,41.2 101.8,41.3 101.7,41.1 C101.5,40.6 101.5,40 101.4,39.5 C101.4,39 101.7,38.9 102.2,38.9 L102.6,38.9 C104.1,38.7 104.4,38.5 104.4,36.9 L104.4,32.7 L104.4,28.2 C104.4,26.5 104.2,26.3 102.5,26.1 C101.5,26 101.5,26 101.4,25 C101.4,23.8 101.4,23.8 102.5,23.8 L119.7,23.8 C120.5,23.8 120.9,24 121,24.8 C121.1,26.2 121.3,27.5 121.4,28.9 C121.5,30.2 121.5,30.1 120.3,30.2 C119.5,30.3 119,30.1 118.8,29.2 C118.3,27.3 116.8,26.6 115.1,26.5 C113.3,26.3 111.5,26.5 109.6,26.4 C109.1,26.4 108.9,26.6 108.9,27.1 L108.9,28.4 C109,30.9 108.4,30.7 111.3,30.6 C112.5,30.6 112.6,30.4 112.7,29.1 C112.7,28.7 112.8,28.1 112.9,28.1 C113.6,28 114.3,28 114.9,28 C115,28 115.1,28.3 115.1,28.5 L115.1,35.7 C115.1,35.9 114.8,36.1 114.6,36.2 C114.2,36.3 113.9,36.2 113.5,36.2 C112.9,36.2 112.5,36.1 112.6,35.4 C112.6,35.1 112.7,34.7 112.6,34.5 C112.5,34.2 112.2,33.7 111.9,33.7 C111,33.6 110.1,33.6 109.3,33.7 C109.2,33.7 108.9,34 108.9,34.2 L108.9,38 C108.9,38.2 109.3,38.5 109.5,38.5 C111.7,38.5 113.9,38.7 116.1,38.2 C117.4,37.9 118.3,37 118.7,35.7 C119.1,35.1 119.2,34.4 119.4,33.7 L119.4,33.7 Z" id="Shape" fill="#424242" sketch:type="MSShapeGroup"></path>
            <path d="M80.5,8.4 C81,8.6 81.4,8.7 81.8,8.9 C83.4,9.5 84.4,10.6 84.5,12.4 C84.6,14.3 83.8,15.6 82.2,16.6 C81,17.3 79.6,17.6 78.2,17.7 L65,17.7 C64.6,17.7 63.9,17.6 63.9,17.4 C63.8,16.9 63.8,16.3 63.9,15.7 C63.9,15.6 64.4,15.4 64.7,15.4 C66.6,15.2 66.7,15 66.7,13.2 L66.7,4.5 C66.7,3 66.4,2.7 64.8,2.5 C64.4,2.5 63.9,2.4 63.8,2.2 C63.7,1.7 63.7,1.1 63.7,0.5 C63.7,0.4 64,0.2 64.1,0.2 L65,0.2 L77.1,0.2 C78,0.2 79,0.4 79.9,0.6 C81.6,1.1 82.9,2.1 83.2,3.9 C83.5,5.8 82.6,7.2 80.9,8 C80.9,8.2 80.7,8.3 80.5,8.4 L80.5,8.4 Z M74,15 C74,15 76.5,14.9 77.7,14.6 C78.8,14.3 79.2,13.6 79.3,12.5 C79.4,10.9 78.2,10.3 77,10.1 C76.3,10 75.5,10 74.7,10.1 C73.6,10.1 72.5,10.3 71.4,10.3 C71.4,11.4 71.3,12.4 71.3,13.5 C71.3,15.1 71.3,15 72.7,15 L74,15 L74,15 Z M73.8,3 L71.9,3 C71.5,3 71.2,3.2 71.2,3.6 L71.2,6.8 C71.2,7 71.5,7.4 71.7,7.4 C73.4,7.3 75.1,7.3 76.7,7.1 C77.6,7 78.2,6.1 78.3,5.2 C78.3,4.3 77.9,3.6 76.9,3.3 C76,3 73.9,2.9 73.8,3 L73.8,3 Z" id="Shape" fill="#424242" sketch:type="MSShapeGroup"></path>
            <path d="M25,4.8 L25,14 C25,15 25.4,15.2 26.6,15.4 C26.9,15.5 27.5,15.6 27.5,15.8 C27.6,16.3 27.6,16.9 27.5,17.5 C27.5,17.6 27.1,17.8 26.9,17.8 L19.7,17.8 C19.1,17.8 19,17.5 19,17 C18.9,15.7 19,15.6 20.2,15.5 C21.6,15.4 21.9,15.1 21.9,13.6 L21.9,4.5 C21.9,3.1 21.6,2.8 20.1,2.7 C19.7,2.7 19.1,2.6 19.1,2.5 C19,1.8 19,1.2 19,0.7 C19,0.6 19.3,0.4 19.5,0.3 C19.9,0.2 20.3,0.3 20.6,0.3 C22.2,0.3 23.9,0.4 25.5,0.3 C26.5,0.3 27.3,0.6 28,1.3 C30.7,4.1 33.4,6.8 36.1,9.5 C36.5,9.9 37,10.4 37.7,11 L37.7,4 C37.7,3 37.2,2.7 36.1,2.5 C35.8,2.4 35.2,2.3 35.2,2.2 C35.1,1.7 35.1,1.1 35.2,0.5 C35.2,0.4 35.6,0.2 35.8,0.2 L42.8,0.2 C43.3,0.2 43.5,0.4 43.5,0.9 L43.5,1.8 C43.5,2.3 43.2,2.5 42.8,2.4 L42,2.4 C41,2.5 40.8,2.7 40.7,3.7 C40.6,5.1 40.7,6.5 40.7,7.9 L40.7,16.6 C40.7,17.4 40.4,17.5 39.7,17.6 C38.3,17.7 37.2,17.4 36.2,16.3 C32.9,12.8 29.5,9.3 26.1,5.8 C25.9,5.6 25.1,4.7 25,4.8 L25,4.8 Z" id="Shape" fill="#424242" sketch:type="MSShapeGroup"></path>
            <path d="M122.6,4.6 L122.6,12.2 C122.6,12.4 122.3,12.7 122,12.7 C121.7,12.8 121.4,12.7 121.1,12.7 C120.4,12.8 120.1,12.5 120.1,11.7 C120,10.1 120,10 118.3,10 C115.9,10 116.3,9.8 116.3,12 C116.3,12.9 116.4,13.8 116.5,14.8 C117.4,14.8 118.2,14.9 119.1,14.9 C120.3,14.9 121.5,14.7 122.7,14.7 C124.8,14.6 125.8,13.3 126.4,11.5 C126.5,11.1 126.6,10.7 126.7,10.3 C126.9,10.3 127,10.2 127.1,10.2 C127.8,10.4 128.7,10.3 129,10.8 C129.3,11.2 128.9,12.1 128.9,12.8 C128.8,14 128.8,15.2 128.8,16.4 C128.7,17.6 128.6,17.7 127.5,17.7 L109.9,17.7 C109.6,17.7 109,17.5 108.9,17.4 C108.8,16.8 108.9,16.2 109.1,15.6 C109.1,15.5 109.7,15.5 110,15.4 C111.6,15.2 111.9,15 111.9,13.4 L111.9,4.3 C111.9,3 111.5,2.7 110.2,2.5 C108.9,2.4 108.8,2.2 108.9,0.9 C108.9,0.4 109.1,0.2 109.6,0.2 L110.5,0.2 L126.6,0.2 C128.4,0.2 128.4,0.2 128.5,2.1 C128.6,3.3 128.7,4.6 128.9,5.8 C129,6.3 128.7,6.6 128.2,6.6 C127,6.6 126.6,6.9 126.2,5.5 C125.7,3.7 124.1,3 122.4,2.9 C120.6,2.8 118.9,2.9 117.1,2.9 C116.5,2.9 116.3,3.2 116.4,3.7 L116.4,5.2 C116.5,5.8 116,6.8 116.8,7 C117.7,7.2 118.8,7 119.8,6.8 C120,6.8 120.1,6.1 120.2,5.6 C120.4,4.4 120.3,4.4 121.5,4.4 C121.7,4.6 122.1,4.6 122.6,4.6 L122.6,4.6 Z" id="Shape" fill="#424242" sketch:type="MSShapeGroup"></path>
            <path d="M53.5,0 C56,0 58.3,0.6 60.1,2.4 C62.5,4.8 61.9,10.7 58.6,12.2 C55.3,14 51.5,14 47.9,12.1 C45.8,11 44.8,8.1 45.1,5.9 C45.7,2 49.1,0.2 52.3,0 L53.5,0 L53.5,0 Z M49.7,6.7 C49.7,7 49.7,7.4 49.8,7.7 C50,9.2 50.7,10.2 52.1,10.6 C52.6,10.8 53.2,10.7 53.8,10.8 C55.2,10.9 56.8,9.8 57,7.8 C57.1,7.2 57.1,6.5 57,5.9 C56.9,4.5 56.2,3.4 54.9,2.9 C53.5,2.4 52.1,2.4 50.9,3.4 C49.9,4.3 49.6,5.4 49.7,6.7 L49.7,6.7 Z" id="Shape" fill="#424242" sketch:type="MSShapeGroup"></path>
            <path d="M96.2,17.7 L87.3,17.7 C86.5,17.7 86.3,17.4 86.4,16.7 C86.4,15.6 86.4,15.5 87.2,15.4 L88,15.4 C88.9,15.3 89.4,14.8 89.4,13.9 L89.4,4.1 C89.4,3.2 88.9,2.8 88,2.6 L87.2,2.6 C86.5,2.7 86.3,2.3 86.4,1.7 L86.4,1.3 C86.3,0.6 86.6,0.3 87.4,0.3 L96.1,0.3 C96.7,0.3 97,0.5 97,1.2 C97,2.5 97.1,2.5 95.7,2.6 C94.4,2.7 94,3 94,4.3 L94,14.1 C94,14.6 94,15 94.7,15 C96.5,14.9 98.3,14.9 100.2,14.8 C102.2,14.7 103.3,13.5 103.7,11.7 C103.8,11.5 103.9,11.2 103.9,11 C104.2,9.7 104.4,9.6 105.6,9.9 C106.2,10 106.6,10.3 106.5,11.1 C106.3,13.1 106.2,15.1 106.1,17.1 C106.1,17.7 105.6,17.7 105.2,17.7 C102.2,17.7 99.2,17.7 96.2,17.7 L96.2,17.7 Z" id="Shape" fill="#424242" sketch:type="MSShapeGroup"></path>
            <path d="M60.8,17 C60.8,17.3 60.5,17.6 60.2,17.6 L46.6,17.6 C46.3,17.6 46,17.3 46,17 L46,16.4 C46,16.1 46.3,15.8 46.6,15.8 L60.3,15.8 C60.6,15.8 60.9,16.1 60.9,16.4 L60.9,17 L60.8,17 Z" id="Shape" fill="#C5A47E" sketch:type="MSShapeGroup"></path>
        </g>
    </g>
</svg>